<svg width="200" height="200" viewBox="0 0 200 200" fill="none" xmlns="http://www.w3.org/2000/svg">
<path d="M162.5 168.75H50C43.0965 168.75 37.5 163.154 37.5 156.25V43.75C37.5 36.8465 43.0965 31.25 50 31.25H162.5C169.404 31.25 175 36.8465 175 43.75V156.25C175 163.154 169.404 168.75 162.5 168.75Z" fill="#463C4B"/>
<path d="M150 168.75H37.5C30.5965 168.75 25 163.154 25 156.25V43.75C25 36.8465 30.5965 31.25 37.5 31.25H150C156.904 31.25 162.5 36.8465 162.5 43.75V156.25C162.5 163.154 156.904 168.75 150 168.75Z" fill="#555A6E"/>
<path d="M137.5 150H50C46.548 150 43.75 147.202 43.75 143.75V56.25C43.75 52.798 46.548 50 50 50H137.5C140.952 50 143.75 52.798 143.75 56.25V143.75C143.75 147.202 140.952 150 137.5 150Z" fill="#463C4B"/>
<path d="M81.25 50C74.3465 50 68.75 55.5965 68.75 62.5C61.8465 62.5 56.25 68.0965 56.25 75C49.3465 75 43.75 80.5965 43.75 87.5V100V112.5C43.75 119.404 49.3465 125 56.25 125C56.25 131.904 61.8465 137.5 68.75 137.5C68.75 144.404 74.3465 150 81.25 150C88.1535 150 93.75 144.404 93.75 137.5V62.5C93.75 55.5965 88.1535 50 81.25 50Z" fill="#FFCD05"/>
<path d="M106.25 150C113.154 150 118.75 144.404 118.75 137.5C125.654 137.5 131.25 131.904 131.25 125C138.154 125 143.75 119.404 143.75 112.5V100V87.5C143.75 80.5965 138.154 75 131.25 75C131.25 68.0965 125.654 62.5 118.75 62.5C118.75 55.5965 113.154 50 106.25 50C99.3465 50 93.75 55.5965 93.75 62.5V137.5C93.75 144.404 99.3465 150 106.25 150Z" fill="#FFCD05"/>
<path d="M134.112 72.1379C132.936 65.8129 127.937 60.8137 121.612 59.6379C120.264 52.3844 113.888 46.875 106.25 46.875C101.144 46.875 96.6031 49.3371 93.75 53.1359C90.8969 49.3371 86.3559 46.875 81.25 46.875C73.6117 46.875 67.2363 52.3844 65.8879 59.6379C59.5629 60.8137 54.5637 65.8129 53.3879 72.1379C46.1344 73.4863 40.625 79.8621 40.625 87.5V112.5C40.625 120.138 46.1344 126.514 53.3879 127.862C54.5637 134.187 59.5629 139.186 65.8879 140.362C67.2363 147.616 73.6117 153.125 81.25 153.125C86.3559 153.125 90.8969 150.663 93.75 146.864C96.6031 150.663 101.144 153.125 106.25 153.125C113.888 153.125 120.264 147.616 121.612 140.362C127.937 139.186 132.936 134.187 134.112 127.862C141.366 126.514 146.875 120.138 146.875 112.5V87.5C146.875 79.8621 141.366 73.4863 134.112 72.1379ZM131.25 85.4168C132.399 85.4168 133.333 86.3516 133.333 87.5C133.333 88.6484 132.398 89.5832 131.25 89.5832C130.102 89.5832 129.167 88.6484 129.167 87.5C129.167 86.3516 130.101 85.4168 131.25 85.4168ZM106.25 97.9168C107.399 97.9168 108.333 98.8516 108.333 100C108.333 101.148 107.398 102.083 106.25 102.083C105.102 102.083 104.167 101.148 104.167 100C104.167 98.8516 105.101 97.9168 106.25 97.9168ZM56.25 114.583C55.1012 114.583 54.1668 113.648 54.1668 112.5C54.1668 111.351 55.1016 110.417 56.25 110.417C57.3984 110.417 58.3332 111.352 58.3332 112.5C58.3332 113.649 57.3988 114.583 56.25 114.583ZM81.25 102.083C80.1012 102.083 79.1668 101.148 79.1668 100C79.1668 98.8516 80.1016 97.9168 81.25 97.9168C82.3984 97.9168 83.3332 98.8516 83.3332 100C83.3332 101.148 82.3988 102.083 81.25 102.083ZM84.375 146.337V104.159C85.6379 103.209 86.4582 101.702 86.4582 100C86.4582 97.1234 84.1266 94.7918 81.25 94.7918C78.3734 94.7918 76.0418 97.1234 76.0418 100C76.0418 101.702 76.8621 103.209 78.125 104.159V122.413C77.1469 122.066 76.0953 121.875 75 121.875C73.277 121.875 71.875 120.473 71.875 118.75V116.659C73.1379 115.709 73.9582 114.202 73.9582 112.5C73.9582 109.623 71.6266 107.292 68.75 107.292C65.8734 107.292 63.5418 109.624 63.5418 112.5C63.5418 114.202 64.3621 115.709 65.625 116.659V118.75C65.625 123.92 69.8309 128.125 75 128.125C76.723 128.125 78.125 129.527 78.125 131.25V146.337C74.4879 145.048 71.875 141.574 71.875 137.5V134.375H68.75C63.5809 134.375 59.375 130.17 59.375 125V116.659C60.6379 115.709 61.4582 114.202 61.4582 112.5C61.4582 109.623 59.1266 107.292 56.25 107.292C53.3734 107.292 51.0418 109.624 51.0418 112.5C51.0418 114.202 51.8621 115.709 53.125 116.659V121.337C49.4879 120.047 46.875 116.573 46.875 112.5V103.125H64.5906C65.541 104.387 67.048 105.208 68.75 105.208C71.6266 105.208 73.9582 102.876 73.9582 99.9996C73.9582 97.123 71.6266 94.7914 68.75 94.7914C67.0477 94.7914 65.541 95.6117 64.5906 96.8746H46.875V87.4996C46.875 83.4258 49.4879 79.9523 53.125 78.6621V81.25C53.125 86.4195 57.3309 90.625 62.5 90.625H64.5906C65.541 91.8879 67.048 92.7082 68.75 92.7082C71.6266 92.7082 73.9582 90.3762 73.9582 87.5C73.9582 84.6234 71.6266 82.2918 68.75 82.2918C67.0477 82.2918 65.541 83.1121 64.5906 84.375H62.5C60.777 84.375 59.375 82.973 59.375 81.25V75C59.375 70.9262 61.9879 67.4527 65.625 66.1625V68.75C65.625 73.9195 69.8309 78.125 75 78.125H78.125V83.3406C76.8621 84.291 76.0418 85.798 76.0418 87.5C76.0418 90.3766 78.3734 92.7082 81.25 92.7082C84.1266 92.7082 86.4582 90.3762 86.4582 87.5C86.4582 85.7977 85.6379 84.2906 84.375 83.3406V66.6598C85.6379 65.7094 86.4582 64.2023 86.4582 62.5004C86.4582 59.6238 84.1266 57.2922 81.25 57.2922C78.3734 57.2922 76.0418 59.6238 76.0418 62.5004C76.0418 64.2027 76.8621 65.7098 78.125 66.6598V71.875H75C73.277 71.875 71.875 70.473 71.875 68.75V62.5C71.875 57.3305 76.0809 53.125 81.25 53.125C86.4191 53.125 90.625 57.3305 90.625 62.5V137.5C90.625 141.574 88.0121 145.047 84.375 146.337ZM66.6668 112.5C66.6668 111.351 67.6016 110.417 68.75 110.417C69.8984 110.417 70.8332 111.352 70.8332 112.5C70.8332 113.649 69.8984 114.583 68.75 114.583C67.6016 114.583 66.6668 113.649 66.6668 112.5ZM68.75 97.9168C69.8988 97.9168 70.8332 98.8516 70.8332 100C70.8332 101.148 69.8984 102.083 68.75 102.083C67.6016 102.083 66.6668 101.148 66.6668 100C66.6668 98.8516 67.6012 97.9168 68.75 97.9168ZM68.75 85.4168C69.8988 85.4168 70.8332 86.3516 70.8332 87.5C70.8332 88.6484 69.8984 89.5832 68.75 89.5832C67.6016 89.5832 66.6668 88.6484 66.6668 87.5C66.6668 86.3516 67.6012 85.4168 68.75 85.4168ZM81.25 64.5832C80.1012 64.5832 79.1668 63.6484 79.1668 62.5C79.1668 61.3516 80.1016 60.4168 81.25 60.4168C82.3984 60.4168 83.3332 61.3516 83.3332 62.5C83.3332 63.6484 82.3988 64.5832 81.25 64.5832ZM81.25 85.4168C82.3988 85.4168 83.3332 86.3516 83.3332 87.5C83.3332 88.6484 82.3984 89.5832 81.25 89.5832C80.1016 89.5832 79.1668 88.6484 79.1668 87.5C79.1668 86.3516 80.1012 85.4168 81.25 85.4168ZM134.375 121.337V118.75C134.375 113.58 130.169 109.375 125 109.375H122.909C121.959 108.112 120.452 107.292 118.75 107.292C115.873 107.292 113.542 109.624 113.542 112.5C113.542 115.377 115.873 117.708 118.75 117.708C120.452 117.708 121.959 116.888 122.909 115.625H125C126.723 115.625 128.125 117.027 128.125 118.75V125C128.125 129.074 125.512 132.547 121.875 133.837V131.25C121.875 126.08 117.669 121.875 112.5 121.875H109.375V116.659C110.638 115.709 111.458 114.202 111.458 112.5C111.458 109.623 109.127 107.292 106.25 107.292C103.373 107.292 101.042 109.624 101.042 112.5C101.042 114.202 101.862 115.709 103.125 116.659V133.34C101.862 134.291 101.042 135.798 101.042 137.5C101.042 140.377 103.373 142.708 106.25 142.708C109.127 142.708 111.458 140.376 111.458 137.5C111.458 135.798 110.638 134.291 109.375 133.34V128.125H112.5C114.223 128.125 115.625 129.527 115.625 131.25V137.5C115.625 142.67 111.419 146.875 106.25 146.875C101.081 146.875 96.875 142.67 96.875 137.5V62.5C96.875 58.4262 99.4879 54.9527 103.125 53.6625V95.8402C101.862 96.7906 101.042 98.2977 101.042 99.9996C101.042 102.876 103.373 105.208 106.25 105.208C109.127 105.208 111.458 102.876 111.458 99.9996C111.458 98.2973 110.638 96.7902 109.375 95.8402V77.5871C110.353 77.934 111.405 78.1246 112.5 78.1246C114.223 78.1246 115.625 79.5266 115.625 81.2496V83.3402C114.362 84.2906 113.542 85.7977 113.542 87.4996C113.542 90.3762 115.873 92.7078 118.75 92.7078C121.627 92.7078 123.958 90.3758 123.958 87.4996C123.958 85.7973 123.138 84.2902 121.875 83.3402V81.25C121.875 76.0805 117.669 71.875 112.5 71.875C110.777 71.875 109.375 70.473 109.375 68.75V53.6625C113.012 54.9523 115.625 58.4262 115.625 62.5V65.625H118.75C123.919 65.625 128.125 69.8305 128.125 75V83.3406C126.862 84.291 126.042 85.798 126.042 87.5C126.042 90.3766 128.373 92.7082 131.25 92.7082C134.127 92.7082 136.458 90.3762 136.458 87.5C136.458 85.7977 135.638 84.2906 134.375 83.3406V78.6629C138.012 79.9527 140.625 83.4266 140.625 87.5004V96.8754H122.909C121.959 95.6125 120.452 94.7922 118.75 94.7922C115.873 94.7922 113.542 97.1238 113.542 100C113.542 102.877 115.873 105.209 118.75 105.209C120.452 105.209 121.959 104.388 122.909 103.125H140.625V112.5C140.625 116.574 138.012 120.047 134.375 121.337ZM118.75 114.583C117.601 114.583 116.667 113.648 116.667 112.5C116.667 111.351 117.602 110.417 118.75 110.417C119.898 110.417 120.833 111.352 120.833 112.5C120.833 113.649 119.899 114.583 118.75 114.583ZM106.25 135.417C107.399 135.417 108.333 136.352 108.333 137.5C108.333 138.649 107.398 139.583 106.25 139.583C105.102 139.583 104.167 138.648 104.167 137.5C104.167 136.351 105.101 135.417 106.25 135.417ZM106.25 114.583C105.101 114.583 104.167 113.648 104.167 112.5C104.167 111.351 105.102 110.417 106.25 110.417C107.398 110.417 108.333 111.352 108.333 112.5C108.333 113.649 107.399 114.583 106.25 114.583ZM120.833 87.5C120.833 88.6488 119.898 89.5832 118.75 89.5832C117.602 89.5832 116.667 88.6484 116.667 87.5C116.667 86.3516 117.602 85.4168 118.75 85.4168C119.898 85.4168 120.833 86.3512 120.833 87.5ZM118.75 102.083C117.601 102.083 116.667 101.148 116.667 100C116.667 98.8516 117.602 97.9168 118.75 97.9168C119.898 97.9168 120.833 98.8516 120.833 100C120.833 101.148 119.899 102.083 118.75 102.083Z" fill="#FAA019"/>
<path d="M53.125 12.5C49.673 12.5 46.875 15.298 46.875 18.75V31.25H59.375V18.75C59.375 15.298 56.577 12.5 53.125 12.5Z" fill="#5AD7FF"/>
<path d="M56.25 15.625C57.9758 15.625 59.375 17.0242 59.375 18.75V31.25H53.125V18.75C53.125 17.0242 54.5242 15.625 56.25 15.625Z" fill="#2387C3"/>
<path d="M84.375 12.5C80.923 12.5 78.125 15.298 78.125 18.75V31.25H90.625V18.75C90.625 15.298 87.827 12.5 84.375 12.5Z" fill="#5AD7FF"/>
<path d="M87.5 15.625C89.2258 15.625 90.625 17.0242 90.625 18.75V31.25H84.375V18.75C84.375 17.0242 85.7742 15.625 87.5 15.625Z" fill="#2387C3"/>
<path d="M115.625 12.5C112.173 12.5 109.375 15.298 109.375 18.75V31.25H121.875V18.75C121.875 15.298 119.077 12.5 115.625 12.5Z" fill="#5AD7FF"/>
<path d="M118.75 15.625C120.476 15.625 121.875 17.0242 121.875 18.75V31.25H115.625V18.75C115.625 17.0242 117.024 15.625 118.75 15.625Z" fill="#2387C3"/>
<path d="M146.875 12.5C143.423 12.5 140.625 15.298 140.625 18.75V31.25H153.125V18.75C153.125 15.298 150.327 12.5 146.875 12.5Z" fill="#5AD7FF"/>
<path d="M150 15.625C151.726 15.625 153.125 17.0242 153.125 18.75V31.25H146.875V18.75C146.875 17.0242 148.274 15.625 150 15.625Z" fill="#2387C3"/>
<path d="M53.125 187.5C49.673 187.5 46.875 184.702 46.875 181.25V168.75H59.375V181.25C59.375 184.702 56.577 187.5 53.125 187.5Z" fill="#5AD7FF"/>
<path d="M56.25 184.375C57.9758 184.375 59.375 182.976 59.375 181.25V168.75H53.125V181.25C53.125 182.976 54.5242 184.375 56.25 184.375Z" fill="#2387C3"/>
<path d="M84.375 187.5C80.923 187.5 78.125 184.702 78.125 181.25V168.75H90.625V181.25C90.625 184.702 87.827 187.5 84.375 187.5Z" fill="#5AD7FF"/>
<path d="M87.5 184.375C89.2258 184.375 90.625 182.976 90.625 181.25V168.75H84.375V181.25C84.375 182.976 85.7742 184.375 87.5 184.375Z" fill="#2387C3"/>
<path d="M115.625 187.5C112.173 187.5 109.375 184.702 109.375 181.25V168.75H121.875V181.25C121.875 184.702 119.077 187.5 115.625 187.5Z" fill="#5AD7FF"/>
<path d="M118.75 184.375C120.476 184.375 121.875 182.976 121.875 181.25V168.75H115.625V181.25C115.625 182.976 117.024 184.375 118.75 184.375Z" fill="#2387C3"/>
<path d="M146.875 187.5C143.423 187.5 140.625 184.702 140.625 181.25V168.75H153.125V181.25C153.125 184.702 150.327 187.5 146.875 187.5Z" fill="#5AD7FF"/>
<path d="M150 184.375C151.726 184.375 153.125 182.976 153.125 181.25V168.75H146.875V181.25C146.875 182.976 148.274 184.375 150 184.375Z" fill="#2387C3"/>
<path d="M6.25 53.125C6.25 49.673 9.04805 46.875 12.5 46.875H25V59.375H12.5C9.04805 59.375 6.25 56.577 6.25 53.125Z" fill="#5AD7FF"/>
<path d="M9.375 56.25C9.375 57.9758 10.7742 59.375 12.5 59.375H25V53.125H12.5C10.7742 53.125 9.375 54.5242 9.375 56.25Z" fill="#2387C3"/>
<path d="M6.25 84.375C6.25 80.923 9.04805 78.125 12.5 78.125H25V90.625H12.5C9.04805 90.625 6.25 87.827 6.25 84.375Z" fill="#5AD7FF"/>
<path d="M9.375 87.5C9.375 89.2258 10.7742 90.625 12.5 90.625H25V84.375H12.5C10.7742 84.375 9.375 85.7742 9.375 87.5Z" fill="#2387C3"/>
<path d="M6.25 115.625C6.25 112.173 9.04805 109.375 12.5 109.375H25V121.875H12.5C9.04805 121.875 6.25 119.077 6.25 115.625Z" fill="#5AD7FF"/>
<path d="M9.375 118.75C9.375 120.476 10.7742 121.875 12.5 121.875H25V115.625H12.5C10.7742 115.625 9.375 117.024 9.375 118.75Z" fill="#2387C3"/>
<path d="M6.25 146.875C6.25 143.423 9.04805 140.625 12.5 140.625H25V153.125H12.5C9.04805 153.125 6.25 150.327 6.25 146.875Z" fill="#5AD7FF"/>
<path d="M9.375 150C9.375 151.726 10.7742 153.125 12.5 153.125H25V146.875H12.5C10.7742 146.875 9.375 148.274 9.375 150Z" fill="#2387C3"/>
<path d="M193.75 53.125C193.75 49.673 190.952 46.875 187.5 46.875H175V59.375H187.5C190.952 59.375 193.75 56.577 193.75 53.125Z" fill="#5AD7FF"/>
<path d="M190.625 56.25C190.625 57.9758 189.226 59.375 187.5 59.375H175V53.125H187.5C189.226 53.125 190.625 54.5242 190.625 56.25Z" fill="#2387C3"/>
<path d="M193.75 84.375C193.75 80.923 190.952 78.125 187.5 78.125H175V90.625H187.5C190.952 90.625 193.75 87.827 193.75 84.375Z" fill="#5AD7FF"/>
<path d="M190.625 87.5C190.625 89.2258 189.226 90.625 187.5 90.625H175V84.375H187.5C189.226 84.375 190.625 85.7742 190.625 87.5Z" fill="#2387C3"/>
<path d="M193.75 115.625C193.75 112.173 190.952 109.375 187.5 109.375H175V121.875H187.5C190.952 121.875 193.75 119.077 193.75 115.625Z" fill="#5AD7FF"/>
<path d="M190.625 118.75C190.625 120.476 189.226 121.875 187.5 121.875H175V115.625H187.5C189.226 115.625 190.625 117.024 190.625 118.75Z" fill="#2387C3"/>
<path d="M193.75 146.875C193.75 143.423 190.952 140.625 187.5 140.625H175V153.125H187.5C190.952 153.125 193.75 150.327 193.75 146.875Z" fill="#5AD7FF"/>
<path d="M190.625 150C190.625 151.726 189.226 153.125 187.5 153.125H175V146.875H187.5C189.226 146.875 190.625 148.274 190.625 150Z" fill="#2387C3"/>
</svg>
