<svg width="200" height="200" viewBox="0 0 200 200" fill="none" xmlns="http://www.w3.org/2000/svg">
<path d="M185.222 142.058H180.959C180.151 138.732 178.834 135.551 177.053 132.628L180.072 129.609C180.792 128.888 181.196 127.91 181.196 126.891C181.196 125.871 180.792 124.894 180.072 124.172L174.277 118.377C173.544 117.677 172.571 117.287 171.558 117.287C170.545 117.287 169.571 117.677 168.839 118.377L165.819 121.395C162.897 119.614 159.717 118.296 156.392 117.489V113.22C156.392 112.715 156.292 112.215 156.098 111.748C155.904 111.281 155.62 110.857 155.263 110.5C154.905 110.143 154.481 109.86 154.014 109.667C153.547 109.474 153.046 109.375 152.541 109.375H150.014V76.4063H167.566C169.637 76.4038 171.623 75.5799 173.087 74.1153C174.552 72.6507 175.376 70.665 175.378 68.5938V48.4C175.376 46.3288 174.552 44.3431 173.087 42.8785C171.623 41.4139 169.637 40.59 167.566 40.5875H150.014V28.1812C150.01 24.8523 148.686 21.6607 146.332 19.3068C143.978 16.9528 140.787 15.6287 137.458 15.625H63.7031C60.3741 15.6287 57.1826 16.9528 54.8286 19.3068C52.4747 21.6607 51.1506 24.8523 51.1469 28.1812V58.2953H27.6563C24.8794 58.3019 22.2183 59.4089 20.2561 61.3738C18.2938 63.3387 17.1904 66.0012 17.1875 68.7781V97.5984C17.1908 100.375 18.2944 103.038 20.2565 105.002C22.2187 106.967 24.8795 108.074 27.6563 108.081H51.1469V178.069C51.1506 181.398 52.4747 184.589 54.8286 186.943C57.1826 189.297 60.3741 190.621 63.7031 190.625H152.541C153.56 190.624 154.538 190.219 155.259 189.498C155.98 188.777 156.385 187.799 156.386 186.78V182.517C159.711 181.709 162.891 180.391 165.813 178.611L168.833 181.63C169.554 182.35 170.532 182.754 171.552 182.754C172.571 182.754 173.549 182.35 174.27 181.63L180.066 175.834C180.785 175.113 181.19 174.135 181.19 173.116C181.19 172.096 180.785 171.119 180.066 170.397L177.047 167.377C178.827 164.455 180.145 161.275 180.953 157.95H185.216C185.721 157.95 186.222 157.85 186.689 157.656C187.156 157.463 187.58 157.179 187.937 156.821C188.294 156.463 188.577 156.039 188.771 155.572C188.964 155.105 189.063 154.604 189.062 154.098V145.902C189.062 144.883 188.657 143.906 187.937 143.186C187.217 142.465 186.241 142.059 185.222 142.058Z" fill="#E6E7E8"/>
<path d="M131.208 10.9375H57.4578C54.5425 10.9375 51.7466 12.0956 49.6852 14.157C47.6237 16.2185 46.4656 19.0144 46.4656 21.9297V171.82C46.4656 174.735 47.6229 177.529 49.683 179.591C51.743 181.652 54.5373 182.811 57.4516 182.812H142.202V21.9297C142.201 19.0142 141.043 16.2183 138.981 14.1569C136.919 12.0956 134.123 10.9375 131.208 10.9375Z" fill="#6DC9F7"/>
<path d="M142.202 159.511V27.2344L46.4594 27.2344L46.4594 159.511H142.202Z" fill="#D4FBFF"/>
<path d="M142.202 27.2328H46.4594V31.9203H142.202V27.2328Z" fill="white"/>
<path d="M107.67 17.4781H80.9891C80.1037 17.4781 79.3859 18.1959 79.3859 19.0812V19.4219C79.3859 20.3073 80.1037 21.025 80.9891 21.025H107.67C108.556 21.025 109.273 20.3073 109.273 19.4219V19.0812C109.273 18.1959 108.556 17.4781 107.67 17.4781Z" fill="#0089EF"/>
<path d="M116.366 17.3047C115.981 17.3047 115.604 17.4189 115.284 17.6328C114.964 17.8467 114.714 18.1508 114.567 18.5065C114.42 18.8623 114.381 19.2537 114.456 19.6314C114.531 20.009 114.717 20.3559 114.989 20.6282C115.261 20.9005 115.608 21.0859 115.986 21.161C116.363 21.2361 116.755 21.1976 117.111 21.0502C117.466 20.9029 117.77 20.6534 117.984 20.3332C118.198 20.013 118.313 19.6366 118.313 19.2516C118.313 18.7352 118.107 18.24 117.742 17.8749C117.377 17.5098 116.882 17.3047 116.366 17.3047Z" fill="#0089EF"/>
<path d="M103.353 165.864H85.3062C83.1558 165.864 81.4125 167.607 81.4125 169.758V170.581C81.4125 172.732 83.1558 174.475 85.3062 174.475H103.353C105.504 174.475 107.247 172.732 107.247 170.581V169.758C107.247 167.607 105.504 165.864 103.353 165.864Z" fill="#0089EF"/>
<path d="M142.192 162.425C152.506 162.425 160.867 154.064 160.867 143.75C160.867 133.436 152.506 125.075 142.192 125.075C131.878 125.075 123.517 133.436 123.517 143.75C123.517 154.064 131.878 162.425 142.192 162.425Z" fill="#FFD7E5"/>
<path d="M181.25 147.848V139.652C181.25 139.046 181.009 138.465 180.581 138.037C180.153 137.609 179.573 137.369 178.967 137.369H173.452C172.637 133.368 171.059 129.562 168.802 126.159L172.708 122.253C172.92 122.041 173.088 121.79 173.203 121.513C173.318 121.236 173.377 120.939 173.377 120.639C173.377 120.339 173.318 120.042 173.203 119.765C173.088 119.488 172.92 119.237 172.708 119.025L166.912 113.23C166.701 113.018 166.449 112.849 166.172 112.734C165.895 112.62 165.598 112.561 165.298 112.561C164.999 112.561 164.702 112.62 164.425 112.734C164.148 112.849 163.896 113.018 163.684 113.23L159.778 117.136C156.376 114.879 152.57 113.3 148.569 112.486V106.97C148.569 106.366 148.329 105.786 147.902 105.358C147.475 104.93 146.895 104.689 146.291 104.688H138.094C137.488 104.688 136.908 104.928 136.48 105.356C136.051 105.784 135.811 106.365 135.811 106.97V112.486C131.81 113.3 128.004 114.879 124.602 117.136L120.695 113.23C120.483 113.018 120.232 112.849 119.955 112.734C119.678 112.62 119.381 112.561 119.081 112.561C118.781 112.561 118.485 112.62 118.208 112.734C117.931 112.849 117.679 113.018 117.467 113.23L111.672 119.025C111.46 119.237 111.291 119.488 111.177 119.765C111.062 120.042 111.003 120.339 111.003 120.639C111.003 120.939 111.062 121.236 111.177 121.513C111.291 121.79 111.46 122.041 111.672 122.253L115.578 126.159C113.321 129.562 111.742 133.368 110.928 137.369H105.412C105.112 137.368 104.815 137.427 104.537 137.541C104.26 137.656 104.008 137.824 103.795 138.036C103.583 138.248 103.414 138.5 103.299 138.777C103.184 139.054 103.125 139.351 103.125 139.652V147.848C103.125 148.454 103.366 149.035 103.794 149.463C104.222 149.891 104.802 150.131 105.408 150.131H110.923C111.738 154.132 113.316 157.938 115.573 161.341L111.667 165.247C111.455 165.459 111.287 165.71 111.172 165.987C111.057 166.264 110.998 166.561 110.998 166.861C110.998 167.161 111.057 167.458 111.172 167.735C111.287 168.012 111.455 168.263 111.667 168.475L117.463 174.27C117.674 174.482 117.926 174.651 118.203 174.766C118.48 174.88 118.777 174.939 119.077 174.939C119.376 174.939 119.673 174.88 119.95 174.766C120.227 174.651 120.479 174.482 120.691 174.27L124.597 170.364C127.999 172.621 131.805 174.2 135.806 175.014V180.53C135.806 180.83 135.865 181.127 135.98 181.404C136.095 181.682 136.264 181.933 136.477 182.146C136.689 182.358 136.941 182.526 137.219 182.64C137.496 182.755 137.794 182.813 138.094 182.812H146.291C146.896 182.813 147.477 182.572 147.905 182.144C148.333 181.716 148.573 181.135 148.573 180.53V175.014C152.574 174.2 156.38 172.621 159.783 170.364L163.689 174.27C163.901 174.482 164.153 174.651 164.429 174.766C164.706 174.88 165.003 174.939 165.303 174.939C165.603 174.939 165.9 174.88 166.177 174.766C166.454 174.651 166.705 174.482 166.917 174.27L172.713 168.475C172.925 168.263 173.093 168.012 173.208 167.735C173.323 167.458 173.382 167.161 173.382 166.861C173.382 166.561 173.323 166.264 173.208 165.987C173.093 165.71 172.925 165.459 172.713 165.247L168.806 161.341C171.063 157.938 172.642 154.132 173.456 150.131H178.972C179.577 150.13 180.156 149.889 180.583 149.461C181.01 149.033 181.25 148.453 181.25 147.848ZM142.188 162.425C138.494 162.424 134.884 161.328 131.814 159.275C128.743 157.223 126.35 154.306 124.937 150.893C123.525 147.481 123.155 143.726 123.877 140.104C124.598 136.482 126.377 133.154 128.989 130.543C131.601 127.932 134.928 126.154 138.551 125.433C142.173 124.713 145.928 125.083 149.34 126.497C152.752 127.911 155.668 130.304 157.72 133.375C159.772 136.446 160.867 140.057 160.867 143.75C160.867 146.203 160.384 148.632 159.445 150.898C158.506 153.164 157.13 155.223 155.396 156.957C153.661 158.691 151.602 160.067 149.336 161.005C147.069 161.943 144.64 162.426 142.188 162.425Z" fill="#FA759E"/>
<path d="M161.317 35.8984H123.281C121.624 35.8984 120.034 36.5569 118.862 37.729C117.69 38.9011 117.031 40.4908 117.031 42.1484V62.3438C117.031 64.0014 117.69 65.5911 118.862 66.7632C120.034 67.9353 121.624 68.5938 123.281 68.5938H132.581V77.5938L142.767 68.5938H161.325C162.983 68.5938 164.572 67.9353 165.744 66.7632C166.917 65.5911 167.575 64.0014 167.575 62.3438V42.1484C167.575 41.327 167.413 40.5137 167.098 39.7549C166.784 38.9961 166.323 38.3067 165.742 37.7263C165.16 37.1458 164.471 36.6856 163.711 36.372C162.952 36.0583 162.139 35.8974 161.317 35.8984Z" fill="#FFD7E5"/>
<path d="M152.766 44.1516C152.156 43.5405 151.432 43.0556 150.635 42.7248C149.837 42.394 148.983 42.2237 148.12 42.2237C147.256 42.2237 146.402 42.394 145.604 42.7248C144.807 43.0556 144.083 43.5405 143.473 44.1516L142.295 45.3297L141.116 44.1516C140.506 43.5407 139.782 43.0561 138.985 42.7254C138.188 42.3947 137.333 42.2245 136.47 42.2245C135.607 42.2245 134.753 42.3947 133.956 42.7254C133.159 43.0561 132.435 43.5407 131.825 44.1516C131.214 44.7611 130.729 45.4852 130.399 46.2823C130.068 47.0794 129.898 47.9339 129.898 48.7969C129.898 49.6598 130.068 50.5143 130.399 51.3115C130.729 52.1086 131.214 52.8326 131.825 53.4422L133.003 54.6219L140.836 62.4531C141.223 62.8401 141.748 63.0575 142.295 63.0575C142.843 63.0575 143.368 62.8401 143.755 62.4531L151.586 54.6219L152.766 53.4422C153.376 52.8326 153.861 52.1086 154.192 51.3115C154.522 50.5143 154.693 49.6598 154.693 48.7969C154.693 47.9339 154.522 47.0794 154.192 46.2823C153.861 45.4852 153.376 44.7611 152.766 44.1516Z" fill="#FA759E"/>
<path d="M21.4141 53.6078H75.7094C78.0749 53.6078 80.3436 54.5474 82.0164 56.22C83.6893 57.8925 84.6293 60.161 84.6297 62.5266V91.3484C84.6297 93.7143 83.6899 95.9832 82.017 97.6561C80.3441 99.3289 78.0752 100.269 75.7094 100.269H62.4375V113.113L47.9062 100.269H21.4141C19.0493 100.267 16.782 99.3266 15.1105 97.6538C13.439 95.9811 12.5 93.7132 12.5 91.3484V62.5266C12.5004 60.1621 13.4396 57.8945 15.111 56.2222C16.7825 54.5498 19.0496 53.6095 21.4141 53.6078Z" fill="#0089EF"/>
<path d="M46.4594 137.109C46.8738 137.109 47.2712 136.945 47.5642 136.652C47.8572 136.359 48.0219 135.961 48.0219 135.547V120.312C48.0219 119.898 47.8572 119.501 47.5642 119.208C47.2712 118.915 46.8738 118.75 46.4594 118.75C46.045 118.75 45.6475 118.915 45.3545 119.208C45.0615 119.501 44.8969 119.898 44.8969 120.312V135.547C44.8969 135.961 45.0615 136.359 45.3545 136.652C45.6475 136.945 46.045 137.109 46.4594 137.109Z" fill="#3A2C60"/>
<path d="M178.972 135.806H174.709C173.902 132.481 172.584 129.3 170.803 126.378L173.822 123.359C174.18 123.003 174.464 122.579 174.658 122.113C174.851 121.646 174.951 121.146 174.951 120.641C174.951 120.135 174.851 119.635 174.658 119.169C174.464 118.702 174.18 118.278 173.822 117.922L168.027 112.127C167.294 111.427 166.321 111.036 165.308 111.036C164.295 111.036 163.321 111.427 162.589 112.127L159.569 115.145C156.648 113.363 153.468 112.046 150.142 111.239V106.97C150.141 105.95 149.735 104.971 149.012 104.25C148.29 103.529 147.311 103.125 146.291 103.125H143.764V70.1563H161.317C163.388 70.1538 165.374 69.3299 166.839 67.8653C168.303 66.4007 169.127 64.415 169.13 62.3438V42.15C169.127 40.0788 168.303 38.0931 166.839 36.6285C165.374 35.1639 163.388 34.34 161.317 34.3375H143.764V21.9297C143.76 18.6008 142.436 15.4094 140.082 13.0557C137.728 10.702 134.537 9.37831 131.208 9.375H57.4578C54.1292 9.37872 50.9381 10.7026 48.5844 13.0563C46.2308 15.4099 44.9068 18.6011 44.9031 21.9297V52.0453H21.4141C18.6358 52.0499 15.9728 53.156 14.0088 55.1211C12.0449 57.0862 10.9404 59.7499 10.9375 62.5281V91.3484C10.9404 94.1275 12.0455 96.7919 14.0105 98.7572C15.9754 100.722 18.6397 101.828 21.4188 101.831H44.8969V113.672C44.8969 114.086 45.0615 114.484 45.3545 114.777C45.6475 115.07 46.045 115.234 46.4594 115.234C46.8738 115.234 47.2712 115.07 47.5642 114.777C47.8573 114.484 48.0219 114.086 48.0219 113.672V102.462L61.4062 114.284C61.6317 114.484 61.91 114.613 62.2075 114.658C62.505 114.703 62.8091 114.661 63.0833 114.537C63.3576 114.414 63.5902 114.213 63.7534 113.961C63.9166 113.708 64.0033 113.413 64.0031 113.112V101.831H75.7125C78.4917 101.828 81.1561 100.722 83.1213 98.7572C85.0865 96.7921 86.192 94.1276 86.1953 91.3484V62.5281C86.1924 59.7488 85.0871 57.0841 83.1218 55.1189C81.1565 53.1536 78.4918 52.0482 75.7125 52.0453H48.0219V28.7953H140.639V34.3375H123.272C121.201 34.34 119.215 35.1639 117.75 36.6285C116.286 38.0931 115.462 40.0788 115.459 42.15V62.3438C115.462 64.415 116.286 66.4007 117.75 67.8653C119.215 69.3299 121.201 70.1538 123.272 70.1563H131.009V77.5937C131.009 77.8948 131.096 78.1894 131.259 78.4423C131.423 78.6951 131.656 78.8954 131.93 79.019C132.205 79.1426 132.509 79.1843 132.807 79.1391C133.104 79.0939 133.382 78.9636 133.608 78.7641L140.639 72.5531V103.125H138.095C137.076 103.126 136.098 103.531 135.377 104.252C134.656 104.973 134.251 105.951 134.25 106.97V111.234C130.924 112.041 127.744 113.359 124.822 115.141L121.802 112.122C121.069 111.422 120.096 111.031 119.083 111.031C118.07 111.031 117.096 111.422 116.364 112.122L110.567 117.917C109.847 118.639 109.443 119.617 109.443 120.636C109.443 121.655 109.847 122.633 110.567 123.355L113.594 126.38C111.811 129.301 110.49 132.481 109.68 135.806H105.412C104.392 135.806 103.413 136.211 102.691 136.932C101.969 137.653 101.563 138.631 101.562 139.652V147.848C101.564 148.868 101.969 149.845 102.69 150.566C103.411 151.286 104.388 151.691 105.408 151.692H109.67C110.202 153.845 110.95 155.939 111.903 157.942H48.0219V142.578C48.0219 142.164 47.8573 141.766 47.5642 141.473C47.2712 141.18 46.8738 141.016 46.4594 141.016C46.045 141.016 45.6475 141.18 45.3545 141.473C45.0615 141.766 44.8969 142.164 44.8969 142.578V171.819C44.9006 175.147 46.2245 178.339 48.5781 180.693C50.9317 183.047 54.1229 184.371 57.4516 184.375H146.291C147.31 184.374 148.287 183.968 149.008 183.247C149.729 182.526 150.135 181.549 150.136 180.53V176.267C153.461 175.459 156.641 174.142 159.563 172.361L162.583 175.38C163.304 176.1 164.282 176.505 165.302 176.505C166.321 176.505 167.299 176.1 168.02 175.38L173.816 169.586C174.173 169.229 174.457 168.805 174.65 168.339C174.844 167.872 174.944 167.372 174.944 166.866C174.944 166.361 174.844 165.861 174.65 165.394C174.457 164.928 174.173 164.504 173.816 164.147L170.795 161.127C172.577 158.205 173.895 155.024 174.702 151.698H178.964C179.985 151.698 180.964 151.292 181.685 150.57C182.407 149.848 182.813 148.869 182.812 147.848V139.652C182.811 138.633 182.406 137.656 181.687 136.936C180.967 136.215 179.991 135.809 178.972 135.806ZM83.0672 62.525V91.3484C83.0651 93.2992 82.2893 95.1695 80.9098 96.5489C79.5304 97.9283 77.6602 98.7042 75.7094 98.7063H62.4375C62.0231 98.7063 61.6257 98.8709 61.3326 99.1639C61.0396 99.4569 60.875 99.8543 60.875 100.269V109.644L48.9328 99.0937C48.6472 98.8418 48.2793 98.7029 47.8984 98.7031H21.4141C19.4649 98.6994 17.5967 97.9232 16.2187 96.5447C14.8408 95.1661 14.0654 93.2976 14.0625 91.3484V62.5281C14.0646 60.5776 14.8402 58.7076 16.2193 57.3282C17.5984 55.9488 19.4682 55.1728 21.4188 55.1703H75.7094C77.6602 55.1724 79.5304 55.9482 80.9098 57.3277C82.2893 58.7071 83.0651 60.5773 83.0672 62.5281V62.525ZM48.0219 25.6703V21.9297C48.0248 19.4297 49.0192 17.0329 50.787 15.2651C52.5547 13.4973 54.9515 12.5029 57.4516 12.5H131.202C133.702 12.5025 136.099 13.4967 137.867 15.2645C139.635 17.0324 140.63 19.4294 140.633 21.9297V25.6703H48.0219ZM132.572 67.0313H123.272C122.029 67.0313 120.836 66.5374 119.957 65.6583C119.078 64.7792 118.584 63.587 118.584 62.3438V42.15C118.584 40.9068 119.078 39.7145 119.957 38.8354C120.836 37.9564 122.029 37.4625 123.272 37.4625H161.317C162.56 37.4625 163.753 37.9564 164.632 38.8354C165.511 39.7145 166.005 40.9068 166.005 42.15V62.3438C166.005 63.587 165.511 64.7792 164.632 65.6583C163.753 66.5374 162.56 67.0313 161.317 67.0313H142.759C142.378 67.031 142.011 67.17 141.725 67.4219L134.134 74.1281V68.5938C134.134 68.1794 133.97 67.7819 133.677 67.4889C133.384 67.1959 132.986 67.0313 132.572 67.0313ZM48.0219 171.819V161.072H113.563L113.589 161.12L110.567 164.141C109.847 164.862 109.443 165.84 109.443 166.859C109.443 167.879 109.847 168.856 110.567 169.578L116.364 175.373C117.086 176.094 118.063 176.498 119.083 176.498C120.102 176.498 121.08 176.094 121.802 175.373L124.822 172.355C127.744 174.135 130.925 175.453 134.25 176.261V180.523C134.252 180.765 134.276 181.006 134.322 181.244H57.4469C54.9485 181.24 52.5536 180.245 50.787 178.479C49.0203 176.712 48.026 174.317 48.0219 171.819ZM179.688 147.848C179.687 148.039 179.611 148.222 179.476 148.357C179.341 148.492 179.158 148.567 178.967 148.567H173.452C173.091 148.567 172.742 148.691 172.463 148.919C172.184 149.147 171.992 149.464 171.92 149.817C171.15 153.623 169.648 157.242 167.498 160.475C167.3 160.776 167.211 161.135 167.247 161.494C167.283 161.852 167.442 162.187 167.697 162.442L171.603 166.348C171.67 166.415 171.723 166.494 171.76 166.582C171.796 166.669 171.815 166.762 171.815 166.857C171.815 166.952 171.796 167.045 171.76 167.132C171.723 167.22 171.67 167.299 171.603 167.366L165.808 173.161C165.741 173.228 165.662 173.281 165.575 173.317C165.487 173.354 165.394 173.372 165.299 173.372C165.205 173.372 165.111 173.354 165.024 173.317C164.937 173.281 164.857 173.228 164.791 173.161L160.884 169.255C160.63 169 160.295 168.841 159.936 168.805C159.578 168.769 159.218 168.857 158.917 169.056C155.683 171.205 152.063 172.706 148.258 173.478C147.905 173.55 147.588 173.742 147.36 174.021C147.132 174.3 147.008 174.649 147.008 175.009V180.525C147.007 180.716 146.931 180.899 146.796 181.034C146.661 181.169 146.478 181.245 146.288 181.245H138.095C137.904 181.245 137.721 181.169 137.586 181.034C137.451 180.899 137.375 180.716 137.375 180.525V175.009C137.375 174.649 137.251 174.3 137.023 174.021C136.795 173.742 136.478 173.55 136.125 173.478C132.321 172.708 128.702 171.209 125.469 169.062C125.168 168.864 124.808 168.775 124.45 168.811C124.091 168.847 123.756 169.006 123.502 169.261L119.595 173.167C119.529 173.234 119.449 173.287 119.362 173.324C119.274 173.36 119.181 173.379 119.086 173.379C118.991 173.379 118.898 173.36 118.81 173.324C118.723 173.287 118.643 173.234 118.577 173.167L112.78 167.372C112.645 167.236 112.57 167.053 112.57 166.862C112.57 166.672 112.645 166.489 112.78 166.353L116.686 162.447C116.941 162.192 117.1 161.857 117.136 161.499C117.172 161.14 117.083 160.78 116.884 160.48C114.736 157.246 113.234 153.627 112.462 149.822C112.39 149.469 112.199 149.152 111.92 148.924C111.641 148.696 111.291 148.572 110.931 148.572H105.416C105.225 148.572 105.042 148.496 104.907 148.361C104.772 148.227 104.696 148.044 104.695 147.853V139.652C104.696 139.461 104.772 139.278 104.907 139.143C105.042 139.008 105.225 138.932 105.416 138.931H110.931C111.291 138.931 111.641 138.807 111.92 138.579C112.199 138.351 112.39 138.034 112.462 137.681C113.234 133.876 114.736 130.256 116.884 127.022C117.083 126.721 117.172 126.361 117.136 126.003C117.1 125.644 116.941 125.309 116.686 125.055L112.78 121.148C112.645 121.013 112.57 120.83 112.57 120.639C112.57 120.448 112.645 120.265 112.78 120.13L118.577 114.334C118.643 114.267 118.723 114.214 118.81 114.178C118.898 114.142 118.991 114.123 119.086 114.123C119.181 114.123 119.274 114.142 119.362 114.178C119.449 114.214 119.528 114.267 119.595 114.334L123.502 118.241C123.756 118.496 124.092 118.655 124.451 118.691C124.809 118.727 125.17 118.638 125.47 118.439C128.703 116.29 132.322 114.788 136.127 114.017C136.479 113.945 136.797 113.753 137.024 113.474C137.252 113.195 137.377 112.846 137.377 112.486V106.97C137.377 106.78 137.453 106.597 137.587 106.462C137.722 106.327 137.905 106.251 138.095 106.25H146.291C146.482 106.25 146.665 106.326 146.8 106.461C146.935 106.596 147.011 106.779 147.011 106.97V112.486C147.011 112.846 147.135 113.195 147.363 113.474C147.591 113.753 147.908 113.945 148.261 114.017C152.066 114.788 155.686 116.29 158.919 118.439C159.219 118.638 159.58 118.727 159.939 118.691C160.297 118.655 160.633 118.496 160.888 118.241L164.794 114.334C164.861 114.268 164.94 114.214 165.027 114.178C165.114 114.142 165.208 114.123 165.302 114.123C165.397 114.123 165.49 114.142 165.578 114.178C165.665 114.214 165.744 114.268 165.811 114.334L171.606 120.13C171.674 120.196 171.727 120.276 171.763 120.363C171.8 120.451 171.819 120.544 171.819 120.639C171.819 120.734 171.8 120.828 171.763 120.915C171.727 121.002 171.674 121.082 171.606 121.148L167.7 125.055C167.445 125.309 167.286 125.644 167.25 126.003C167.214 126.361 167.303 126.721 167.502 127.022C169.651 130.255 171.153 133.875 171.923 137.681C171.995 138.034 172.187 138.351 172.466 138.579C172.745 138.807 173.094 138.931 173.455 138.931H178.97C179.161 138.932 179.344 139.008 179.479 139.143C179.614 139.278 179.69 139.461 179.691 139.652L179.688 147.848Z" fill="#3A2C60"/>
<path d="M142.188 123.513C138.185 123.513 134.273 124.701 130.945 126.925C127.618 129.15 125.025 132.311 123.494 136.009C121.963 139.707 121.563 143.776 122.344 147.701C123.126 151.626 125.053 155.232 127.884 158.062C130.714 160.892 134.32 162.819 138.246 163.599C142.171 164.379 146.24 163.978 149.938 162.447C153.635 160.915 156.796 158.321 159.019 154.993C161.243 151.665 162.43 147.752 162.43 143.75C162.424 138.384 160.289 133.239 156.494 129.445C152.699 125.651 147.554 123.517 142.188 123.513ZM142.188 160.856C138.803 160.855 135.495 159.851 132.681 157.97C129.867 156.088 127.675 153.415 126.38 150.288C125.086 147.16 124.748 143.719 125.41 140.4C126.071 137.081 127.702 134.032 130.096 131.64C132.49 129.247 135.539 127.618 138.859 126.959C142.179 126.3 145.62 126.64 148.746 127.936C151.873 129.232 154.545 131.427 156.424 134.242C158.303 137.056 159.306 140.365 159.305 143.75C159.3 148.288 157.495 152.638 154.285 155.847C151.076 159.055 146.725 160.859 142.188 160.863V160.856Z" fill="#3A2C60"/>
<path d="M29.8125 83.5938C32.8328 83.5938 35.2812 81.1453 35.2812 78.125C35.2812 75.1047 32.8328 72.6562 29.8125 72.6562C26.7922 72.6562 24.3438 75.1047 24.3438 78.125C24.3438 81.1453 26.7922 83.5938 29.8125 83.5938Z" fill="white"/>
<path d="M48.5625 83.5938C51.5828 83.5938 54.0313 81.1453 54.0313 78.125C54.0313 75.1047 51.5828 72.6562 48.5625 72.6562C45.5422 72.6562 43.0938 75.1047 43.0938 78.125C43.0938 81.1453 45.5422 83.5938 48.5625 83.5938Z" fill="white"/>
<path d="M67.3125 83.5938C70.3328 83.5938 72.7812 81.1453 72.7812 78.125C72.7812 75.1047 70.3328 72.6562 67.3125 72.6562C64.2922 72.6562 61.8438 75.1047 61.8438 78.125C61.8438 81.1453 64.2922 83.5938 67.3125 83.5938Z" fill="white"/>
</svg>
