<svg width="200" height="200" viewBox="0 0 200 200" fill="none" xmlns="http://www.w3.org/2000/svg">
<path d="M140.002 15.625H66.2469C59.3122 15.625 53.6906 21.2466 53.6906 28.1812V178.069C53.6906 185.003 59.3122 190.625 66.2469 190.625H140.002C146.936 190.625 152.558 185.003 152.558 178.069V28.1812C152.558 21.2466 146.936 15.625 140.002 15.625Z" fill="#E6E7E8"/>
<path d="M133.753 10.9375H59.9953C53.9245 10.9375 49.0031 15.8589 49.0031 21.9297V171.82C49.0031 177.891 53.9245 182.812 59.9953 182.812H133.753C139.824 182.812 144.745 177.891 144.745 171.82V21.9297C144.745 15.8589 139.824 10.9375 133.753 10.9375Z" fill="#6DC9F7"/>
<path d="M144.745 27.2328H49.0031V159.509H144.745V27.2328Z" fill="#D4FBFF"/>
<path d="M113.586 54.9484H80.1641V75H113.586V54.9484Z" fill="#FA759E"/>
<path d="M78.5828 107.097H58.0281V127.148H78.5828V107.097Z" fill="#FA759E"/>
<path d="M107.152 107.097H86.5969V127.148H107.152V107.097Z" fill="#FA759E"/>
<path d="M135.722 107.097H115.167V127.148H135.722V107.097Z" fill="#FA759E"/>
<path d="M144.745 154.822H49.0031V159.509H144.745V154.822Z" fill="white"/>
<path d="M115.167 105.533C114.753 105.533 114.355 105.697 114.062 105.99C113.769 106.283 113.605 106.681 113.605 107.095V127.148C113.605 127.563 113.769 127.96 114.062 128.253C114.355 128.546 114.753 128.711 115.167 128.711H135.722C136.136 128.711 136.534 128.546 136.827 128.253C137.12 127.96 137.284 127.563 137.284 127.148V107.095C137.284 106.681 137.12 106.283 136.827 105.99C136.534 105.697 136.136 105.533 135.722 105.533H127.006V91.7312C127.006 91.3168 126.842 90.9194 126.549 90.6264C126.256 90.3334 125.858 90.1687 125.444 90.1687H98.4375V76.5625H113.586C114 76.5625 114.398 76.3979 114.691 76.1049C114.984 75.8118 115.148 75.4144 115.148 75V54.9469C115.148 54.5325 114.984 54.135 114.691 53.842C114.398 53.549 114 53.3844 113.586 53.3844H80.1641C79.7497 53.3844 79.3522 53.549 79.0592 53.842C78.7662 54.135 78.6016 54.5325 78.6016 54.9469V75C78.6016 75.4144 78.7662 75.8118 79.0592 76.1049C79.3522 76.3979 79.7497 76.5625 80.1641 76.5625H95.3125V90.1687H68.3047C67.8903 90.1687 67.4929 90.3334 67.1998 90.6264C66.9068 90.9194 66.7422 91.3168 66.7422 91.7312V105.533H58.0281C57.6137 105.533 57.2163 105.697 56.9233 105.99C56.6303 106.283 56.4656 106.681 56.4656 107.095V127.148C56.4656 127.563 56.6303 127.96 56.9233 128.253C57.2163 128.546 57.6137 128.711 58.0281 128.711H78.5828C78.9972 128.711 79.3947 128.546 79.6877 128.253C79.9807 127.96 80.1453 127.563 80.1453 127.148V107.095C80.1453 106.681 79.9807 106.283 79.6877 105.99C79.3947 105.697 78.9972 105.533 78.5828 105.533H69.8672V93.2937H95.3125V105.533H86.5969C86.1825 105.533 85.7851 105.697 85.492 105.99C85.199 106.283 85.0344 106.681 85.0344 107.095V127.148C85.0344 127.563 85.199 127.96 85.492 128.253C85.7851 128.546 86.1825 128.711 86.5969 128.711H107.153C107.568 128.711 107.965 128.546 108.258 128.253C108.551 127.96 108.716 127.563 108.716 127.148V107.095C108.716 106.681 108.551 106.283 108.258 105.99C107.965 105.697 107.568 105.533 107.153 105.533H98.4375V93.2937H123.881V105.533H115.167ZM81.7297 56.5094H112.027V73.4375H81.7266L81.7297 56.5094ZM77.0203 125.586H59.5906V108.658H77.0203V125.586ZM105.591 125.586H88.1594V108.658H105.591V125.586ZM134.159 125.586H116.73V108.658H134.159V125.586Z" fill="#3A2C60"/>
<path d="M144.745 49.0625C144.331 49.0625 143.933 49.2271 143.64 49.5201C143.347 49.8132 143.183 50.2106 143.183 50.625V63.25C143.183 63.6644 143.347 64.0618 143.64 64.3549C143.933 64.6479 144.331 64.8125 144.745 64.8125C145.16 64.8125 145.557 64.6479 145.85 64.3549C146.143 64.0618 146.308 63.6644 146.308 63.25V50.625C146.308 50.2106 146.143 49.8132 145.85 49.5201C145.557 49.2271 145.16 49.0625 144.745 49.0625Z" fill="#3A2C60"/>
<path d="M133.75 9.375H60C56.671 9.37872 53.4795 10.7028 51.1255 13.0568C48.7716 15.4107 47.4475 18.6023 47.4438 21.9313V171.819C47.4475 175.148 48.7716 178.339 51.1255 180.693C53.4795 183.047 56.671 184.371 60 184.375H133.75C137.079 184.371 140.27 183.047 142.624 180.693C144.978 178.339 146.301 175.148 146.305 171.819V70.8094C146.305 70.395 146.14 69.9975 145.847 69.7045C145.554 69.4115 145.157 69.2469 144.742 69.2469C144.328 69.2469 143.93 69.4115 143.637 69.7045C143.344 69.9975 143.18 70.395 143.18 70.8094V157.947H50.5656V28.7953H143.183V43.075C143.183 43.4894 143.347 43.8868 143.64 44.1799C143.933 44.4729 144.331 44.6375 144.745 44.6375C145.16 44.6375 145.557 44.4729 145.85 44.1799C146.143 43.8868 146.308 43.4894 146.308 43.075V21.9313C146.305 18.6019 144.98 15.4098 142.626 13.0557C140.272 10.7017 137.079 9.3779 133.75 9.375ZM143.18 161.072V171.819C143.177 174.319 142.183 176.716 140.415 178.484C138.647 180.252 136.25 181.247 133.75 181.25H60C57.4996 181.247 55.1024 180.253 53.3343 178.484C51.5662 176.716 50.5716 174.319 50.5688 171.819V161.072H143.18ZM50.5656 25.6703V21.9313C50.5685 19.4303 51.5635 17.0326 53.3323 15.2644C55.101 13.4963 57.499 12.5021 60 12.5H133.75C136.25 12.5029 138.647 13.4975 140.415 15.2656C142.183 17.0338 143.177 19.431 143.18 21.9313V25.6703H50.5656Z" fill="#3A2C60"/>
<path d="M110.216 17.4781H83.5344C82.649 17.4781 81.9312 18.1959 81.9312 19.0813V19.4203C81.9312 20.3057 82.649 21.0234 83.5344 21.0234H110.216C111.101 21.0234 111.819 20.3057 111.819 19.4203V19.0813C111.819 18.1959 111.101 17.4781 110.216 17.4781Z" fill="#0089EF"/>
<path d="M118.906 17.3047C118.521 17.3044 118.145 17.4183 117.824 17.632C117.504 17.8458 117.254 18.1497 117.106 18.5054C116.959 18.8612 116.92 19.2527 116.995 19.6304C117.07 20.0082 117.255 20.3552 117.527 20.6277C117.8 20.9001 118.147 21.0857 118.524 21.1609C118.902 21.2362 119.294 21.1977 119.649 21.0504C120.005 20.9031 120.309 20.6535 120.523 20.3334C120.737 20.0132 120.852 19.6367 120.852 19.2516C120.852 18.996 120.802 18.7428 120.704 18.5066C120.606 18.2704 120.463 18.0558 120.282 17.875C120.102 17.6942 119.887 17.5508 119.651 17.4529C119.415 17.3551 119.162 17.3047 118.906 17.3047Z" fill="#0089EF"/>
<path d="M105.898 165.864H87.8516C85.7011 165.864 83.9578 167.607 83.9578 169.758V170.581C83.9578 172.732 85.7011 174.475 87.8516 174.475H105.898C108.049 174.475 109.792 172.732 109.792 170.581V169.758C109.792 167.607 108.049 165.864 105.898 165.864Z" fill="#0089EF"/>
</svg>
