<svg width="200" height="200" viewBox="0 0 200 200" fill="none" xmlns="http://www.w3.org/2000/svg">
<path d="M174.973 24.4398H25.0273C19.1313 24.4398 14.3516 29.2196 14.3516 35.1156V131.816C14.3516 137.712 19.1313 142.491 25.0273 142.491H174.973C180.869 142.491 185.648 137.712 185.648 131.816V35.1156C185.648 29.2196 180.869 24.4398 174.973 24.4398Z" fill="#CECECE"/>
<path d="M22.1641 131.816V35.1156C22.1674 32.2852 23.2932 29.5717 25.2946 27.5704C27.296 25.569 30.0095 24.4432 32.8398 24.4398H25.0273C22.197 24.4432 19.4835 25.569 17.4821 27.5704C15.4807 29.5717 14.3549 32.2852 14.3516 35.1156V131.816C14.3549 134.646 15.4807 137.359 17.4821 139.361C19.4835 141.362 22.197 142.488 25.0273 142.491H32.8398C30.0095 142.488 27.296 141.362 25.2946 139.361C23.2932 137.359 22.1674 134.646 22.1641 131.816Z" fill="#AFAFAF"/>
<path d="M177.836 131.816V35.1156C177.833 32.2852 176.707 29.5717 174.705 27.5704C172.704 25.569 169.991 24.4432 167.16 24.4398H174.973C177.803 24.4432 180.517 25.569 182.518 27.5704C184.519 29.5717 185.645 32.2852 185.648 35.1156V131.816C185.645 134.646 184.519 137.359 182.518 139.361C180.517 141.362 177.803 142.488 174.973 142.491H167.16C169.991 142.488 172.704 141.362 174.705 139.361C176.707 137.359 177.833 134.646 177.836 131.816Z" fill="#E2E2E2"/>
<path d="M174.973 31.0094H25.0273C22.7595 31.0094 20.9211 32.8478 20.9211 35.1156V122.441C20.9211 124.708 22.7595 126.547 25.0273 126.547H174.973C177.24 126.547 179.079 124.708 179.079 122.441V35.1156C179.079 32.8478 177.24 31.0094 174.973 31.0094Z" fill="#63BCE7"/>
<path d="M28.7336 122.441V35.1148C28.7367 34.0268 29.1703 32.9841 29.9397 32.2147C30.7091 31.4453 31.7518 31.0117 32.8398 31.0086H25.0273C23.9393 31.0117 22.8966 31.4453 22.1272 32.2147C21.3578 32.9841 20.9242 34.0268 20.9211 35.1148V122.441C20.9242 123.529 21.3578 124.571 22.1272 125.341C22.8966 126.11 23.9393 126.544 25.0273 126.547H32.8398C31.7518 126.544 30.7091 126.11 29.9397 125.341C29.1703 124.571 28.7367 123.529 28.7336 122.441Z" fill="#6377E7"/>
<path d="M171.266 122.441V35.1148C171.263 34.0268 170.83 32.9841 170.06 32.2147C169.291 31.4453 168.248 31.0117 167.16 31.0086H174.973C176.061 31.0117 177.103 31.4453 177.873 32.2147C178.642 32.9841 179.076 34.0268 179.079 35.1148V122.441C179.076 123.529 178.642 124.571 177.873 125.341C177.103 126.11 176.061 126.544 174.973 126.547H167.16C168.248 126.544 169.291 126.11 170.06 125.341C170.83 124.571 171.263 123.529 171.266 122.441Z" fill="#63E2E7"/>
<path d="M129.837 159.802H70.1633V166.988H129.837V159.802Z" fill="#9E9E9E"/>
<path d="M77.9758 159.802H70.1633V166.988H77.9758V159.802Z" fill="#707070"/>
<path d="M121.351 142.491H78.6484V159.802H121.351V142.491Z" fill="#CECECE"/>
<path d="M86.4609 142.491H78.6484V159.802H86.4609V142.491Z" fill="#AFAFAF"/>
<path d="M100 138.034C101.942 138.034 103.516 136.46 103.516 134.519C103.516 132.577 101.942 131.003 100 131.003C98.0584 131.003 96.4844 132.577 96.4844 134.519C96.4844 136.46 98.0584 138.034 100 138.034Z" fill="#9E9E9E"/>
<path d="M37.6953 44.9219C39.6728 44.9219 41.2758 43.3188 41.2758 41.3414C41.2758 39.364 39.6728 37.7609 37.6953 37.7609C35.7179 37.7609 34.1148 39.364 34.1148 41.3414C34.1148 43.3188 35.7179 44.9219 37.6953 44.9219Z" fill="#F8AF23"/>
<path d="M49.0883 44.9219C51.0657 44.9219 52.6688 43.3188 52.6688 41.3414C52.6688 39.364 51.0657 37.7609 49.0883 37.7609C47.1108 37.7609 45.5078 39.364 45.5078 41.3414C45.5078 43.3188 47.1108 44.9219 49.0883 44.9219Z" fill="#F8AF23"/>
<path d="M60.482 44.9219C62.4595 44.9219 64.0625 43.3188 64.0625 41.3414C64.0625 39.364 62.4595 37.7609 60.482 37.7609C58.5046 37.7609 56.9016 39.364 56.9016 41.3414C56.9016 43.3188 58.5046 44.9219 60.482 44.9219Z" fill="#F8AF23"/>
<path d="M165.481 50.9023H34.5188V84.7562H165.481V50.9023Z" fill="#F46275"/>
<path d="M67.9406 91.6016H34.5734V108.398H67.9406V91.6016Z" fill="#F8AF23"/>
<path d="M116.684 91.6016H83.3164V108.398H116.684V91.6016Z" fill="#F8AF23"/>
<path d="M165.481 91.6016H132.114V108.398H165.481V91.6016Z" fill="#F8AF23"/>
<path d="M180.251 122.441V35.1148C180.249 33.7156 179.693 32.374 178.704 31.3845C177.714 30.395 176.373 29.8384 174.973 29.8367H25.0273C23.6279 29.8382 22.2863 30.3947 21.2967 31.3842C20.3072 32.3738 19.7507 33.7154 19.7492 35.1148V122.441C19.7507 123.84 20.3072 125.182 21.2967 126.171C22.2863 127.161 23.6279 127.717 25.0273 127.719H174.973C176.373 127.717 177.714 127.16 178.704 126.171C179.693 125.181 180.249 123.84 180.251 122.441ZM22.093 122.441V35.1148C22.0938 34.3369 22.4032 33.591 22.9533 33.0408C23.5035 32.4907 24.2494 32.1813 25.0273 32.1805H174.973C175.751 32.1815 176.497 32.491 177.047 33.0411C177.597 33.5912 177.906 34.337 177.907 35.1148V122.441C177.906 123.218 177.597 123.964 177.047 124.514C176.497 125.064 175.751 125.374 174.973 125.375H25.0273C24.2494 125.374 23.5035 125.065 22.9533 124.515C22.4032 123.965 22.0938 123.219 22.093 122.441Z" fill="#3F3679"/>
<path d="M100 129.832C99.0729 129.832 98.1666 130.107 97.3958 130.622C96.6249 131.137 96.0241 131.869 95.6693 132.726C95.3145 133.582 95.2217 134.525 95.4026 135.434C95.5834 136.343 96.0299 137.179 96.6854 137.834C97.341 138.49 98.1762 138.936 99.0855 139.117C99.9948 139.298 100.937 139.205 101.794 138.85C102.65 138.495 103.382 137.895 103.898 137.124C104.413 136.353 104.688 135.447 104.688 134.52C104.686 133.277 104.192 132.085 103.313 131.207C102.434 130.328 101.243 129.833 100 129.832ZM100 136.863C99.5365 136.863 99.0833 136.726 98.6979 136.468C98.3125 136.211 98.0121 135.845 97.8347 135.416C97.6573 134.988 97.6109 134.517 97.7013 134.062C97.7917 133.608 98.0149 133.19 98.3427 132.862C98.6705 132.534 99.0881 132.311 99.5428 132.221C99.9974 132.13 100.469 132.177 100.897 132.354C101.325 132.532 101.691 132.832 101.949 133.217C102.206 133.603 102.344 134.056 102.344 134.52C102.344 135.141 102.097 135.737 101.657 136.177C101.218 136.616 100.622 136.863 100 136.863Z" fill="#3F3679"/>
<path d="M21.3461 174.388H7.28359C6.97279 174.388 6.67472 174.512 6.45495 174.732C6.23518 174.951 6.11172 175.249 6.11172 175.56C6.11172 175.871 6.23518 176.169 6.45495 176.389C6.67472 176.609 6.97279 176.732 7.28359 176.732H21.3461C21.6569 176.732 21.955 176.609 22.1747 176.389C22.3945 176.169 22.518 175.871 22.518 175.56C22.518 175.249 22.3945 174.951 22.1747 174.732C21.955 174.512 21.6569 174.388 21.3461 174.388Z" fill="#3F3679"/>
<path d="M192.719 174.388H178.656C178.345 174.388 178.047 174.512 177.828 174.732C177.608 174.951 177.484 175.249 177.484 175.56C177.484 175.871 177.608 176.169 177.828 176.389C178.047 176.609 178.345 176.732 178.656 176.732H192.719C193.03 176.732 193.328 176.609 193.547 176.389C193.767 176.169 193.891 175.871 193.891 175.56C193.891 175.249 193.767 174.951 193.547 174.732C193.328 174.512 193.03 174.388 192.719 174.388Z" fill="#3F3679"/>
<path d="M170.687 174.388H29.3133C29.0025 174.388 28.7044 174.512 28.4846 174.732C28.2649 174.951 28.1414 175.249 28.1414 175.56C28.1414 175.871 28.2649 176.169 28.4846 176.389C28.7044 176.609 29.0025 176.732 29.3133 176.732H170.687C170.998 176.732 171.296 176.609 171.515 176.389C171.735 176.169 171.859 175.871 171.859 175.56C171.859 175.249 171.735 174.951 171.515 174.732C171.296 174.512 170.998 174.388 170.687 174.388Z" fill="#3F3679"/>
<path d="M7.28125 168.159H192.719C193.03 168.159 193.328 168.036 193.547 167.816C193.767 167.596 193.891 167.298 193.891 166.987C193.891 166.677 193.767 166.379 193.547 166.159C193.328 165.939 193.03 165.816 192.719 165.816H131.009V159.8C131.009 159.489 130.885 159.191 130.665 158.971C130.446 158.752 130.148 158.628 129.837 158.628H122.523V143.663H174.973C178.114 143.66 181.126 142.41 183.347 140.189C185.568 137.968 186.817 134.957 186.82 131.816V35.1148C186.817 31.9739 185.568 28.9627 183.347 26.7417C181.126 24.5208 178.114 23.2715 174.973 23.268H25.0273C21.8864 23.2715 18.875 24.5207 16.6539 26.7417C14.4329 28.9626 13.1834 31.9739 13.1797 35.1148V131.816C13.1832 134.957 14.4326 137.968 16.6537 140.189C18.8748 142.41 21.8862 143.66 25.0273 143.663H77.4766V158.63H70.1633C69.8525 158.63 69.5544 158.754 69.3346 158.974C69.1149 159.193 68.9914 159.492 68.9914 159.802V165.818H7.28125C6.97045 165.818 6.67238 165.941 6.45261 166.161C6.23284 166.381 6.10938 166.679 6.10938 166.99C6.10938 167.301 6.23284 167.599 6.45261 167.818C6.67238 168.038 6.97045 168.162 7.28125 168.162V168.159ZM15.5234 131.815V35.1148C15.5263 32.5952 16.5286 30.1796 18.3103 28.398C20.092 26.6165 22.5077 25.6144 25.0273 25.6117H174.973C177.493 25.6146 179.908 26.6168 181.69 28.3983C183.472 30.1799 184.474 32.5953 184.477 35.1148V131.816C184.474 134.335 183.472 136.751 181.69 138.533C179.909 140.314 177.493 141.317 174.973 141.32H25.0273C22.5076 141.317 20.092 140.314 18.3103 138.533C16.5286 136.751 15.5263 134.335 15.5234 131.815ZM79.8203 143.662H120.179V158.63H79.8203V143.662ZM71.3352 160.974H128.666V165.818H71.3352V160.974Z" fill="#3F3679"/>
<path d="M37.6953 46.0937C38.6352 46.0937 39.5541 45.815 40.3356 45.2928C41.1171 44.7706 41.7262 44.0284 42.0859 43.16C42.4456 42.2917 42.5397 41.3361 42.3563 40.4143C42.173 39.4924 41.7204 38.6456 41.0557 37.981C40.3911 37.3164 39.5443 36.8637 38.6225 36.6804C37.7006 36.497 36.7451 36.5911 35.8767 36.9508C35.0083 37.3105 34.2661 37.9196 33.7439 38.7011C33.2217 39.4827 32.943 40.4015 32.943 41.3414C32.9444 42.6014 33.4456 43.8093 34.3365 44.7002C35.2274 45.5911 36.4354 46.0923 37.6953 46.0937ZM37.6953 38.932C38.1717 38.932 38.6373 39.0733 39.0334 39.3379C39.4295 39.6025 39.7382 39.9786 39.9205 40.4187C40.1028 40.8588 40.1506 41.343 40.0577 41.8102C39.9648 42.2774 39.7355 42.7066 39.3987 43.0435C39.062 43.3804 38.6329 43.6098 38.1657 43.7028C37.6985 43.7959 37.2143 43.7483 36.7741 43.5661C36.334 43.3839 35.9578 43.0753 35.693 42.6793C35.4283 42.2833 35.2869 41.8177 35.2867 41.3414C35.2873 40.7027 35.5413 40.0904 35.9928 39.6387C36.4444 39.187 37.0566 38.9329 37.6953 38.932Z" fill="#3F3679"/>
<path d="M49.0883 46.0937C50.0282 46.0937 50.947 45.815 51.7285 45.2928C52.5101 44.7706 53.1192 44.0284 53.4789 43.16C53.8386 42.2917 53.9327 41.3361 53.7493 40.4143C53.5659 39.4924 53.1133 38.6456 52.4487 37.981C51.7841 37.3164 50.9373 36.8637 50.0154 36.6804C49.0936 36.497 48.138 36.5911 47.2696 36.9508C46.4013 37.3105 45.659 37.9196 45.1369 38.7011C44.6147 39.4827 44.3359 40.4015 44.3359 41.3414C44.3374 42.6014 44.8385 43.8093 45.7295 44.7002C46.6204 45.5911 47.8283 46.0923 49.0883 46.0937ZM49.0883 38.932C49.5646 38.932 50.0303 39.0733 50.4263 39.3379C50.8224 39.6025 51.1311 39.9786 51.3135 40.4187C51.4958 40.8588 51.5435 41.343 51.4507 41.8102C51.3578 42.2774 51.1285 42.7066 50.7917 43.0435C50.4549 43.3804 50.0258 43.6098 49.5587 43.7028C49.0915 43.7959 48.6072 43.7483 48.1671 43.5661C47.727 43.3839 47.3507 43.0753 47.086 42.6793C46.8212 42.2833 46.6798 41.8177 46.6797 41.3414C46.6803 40.7027 46.9342 40.0904 47.3858 39.6387C47.8373 39.187 48.4496 38.9329 49.0883 38.932Z" fill="#3F3679"/>
<path d="M60.482 46.0937C61.422 46.0937 62.3408 45.815 63.1223 45.2928C63.9038 44.7706 64.5129 44.0284 64.8726 43.16C65.2323 42.2917 65.3264 41.3361 65.1431 40.4143C64.9597 39.4924 64.5071 38.6456 63.8424 37.981C63.1778 37.3164 62.331 36.8637 61.4092 36.6804C60.4873 36.497 59.5318 36.5911 58.6634 36.9508C57.795 37.3105 57.0528 37.9196 56.5306 38.7011C56.0084 39.4827 55.7297 40.4015 55.7297 41.3414C55.7311 42.6014 56.2323 43.8093 57.1232 44.7002C58.0141 45.5911 59.2221 46.0923 60.482 46.0937ZM60.482 38.932C60.9584 38.932 61.424 39.0733 61.8201 39.3379C62.2162 39.6025 62.5249 39.9786 62.7072 40.4187C62.8895 40.8588 62.9373 41.343 62.8444 41.8102C62.7515 42.2774 62.5222 42.7066 62.1854 43.0435C61.8487 43.3804 61.4196 43.6098 60.9524 43.7028C60.4852 43.7959 60.001 43.7483 59.5608 43.5661C59.1207 43.3839 58.7445 43.0753 58.4797 42.6793C58.215 42.2833 58.0736 41.8177 58.0734 41.3414C58.0741 40.7027 58.328 40.0904 58.7795 39.6387C59.2311 39.187 59.8434 38.9329 60.482 38.932Z" fill="#3F3679"/>
<path d="M165.885 40.1695H81.7711C81.4603 40.1695 81.1622 40.293 80.9425 40.5128C80.7227 40.7325 80.5992 41.0306 80.5992 41.3414C80.5992 41.6522 80.7227 41.9503 80.9425 42.17C81.1622 42.3898 81.4603 42.5133 81.7711 42.5133H165.885C166.196 42.5133 166.494 42.3898 166.714 42.17C166.934 41.9503 167.057 41.6522 167.057 41.3414C167.057 41.0306 166.934 40.7325 166.714 40.5128C166.494 40.293 166.196 40.1695 165.885 40.1695Z" fill="#3F3679"/>
<path d="M165.481 49.7305H34.5188C34.208 49.7305 33.9099 49.8539 33.6901 50.0737C33.4703 50.2935 33.3469 50.5915 33.3469 50.9023V84.7563C33.3469 85.0671 33.4703 85.3651 33.6901 85.5849C33.9099 85.8047 34.208 85.9281 34.5188 85.9281H165.481C165.792 85.9281 166.09 85.8047 166.31 85.5849C166.53 85.3651 166.653 85.0671 166.653 84.7563V50.9023C166.653 50.5915 166.53 50.2935 166.31 50.0737C166.09 49.8539 165.792 49.7305 165.481 49.7305ZM164.309 83.5844H35.6906V52.0742H164.309V83.5844Z" fill="#3F3679"/>
<path d="M67.9398 90.4297H34.5727C34.2619 90.4297 33.9638 90.5532 33.744 90.7729C33.5242 90.9927 33.4008 91.2908 33.4008 91.6016V108.398C33.4008 108.709 33.5242 109.007 33.744 109.227C33.9638 109.447 34.2619 109.57 34.5727 109.57H67.9398C68.2506 109.57 68.5487 109.447 68.7685 109.227C68.9883 109.007 69.1117 108.709 69.1117 108.398V91.6016C69.1117 91.2908 68.9883 90.9927 68.7685 90.7729C68.5487 90.5532 68.2506 90.4297 67.9398 90.4297ZM66.768 107.227H35.7445V92.7734H66.768V107.227Z" fill="#3F3679"/>
<path d="M116.683 90.4297H83.3164C83.0056 90.4297 82.7075 90.5532 82.4878 90.7729C82.268 90.9927 82.1445 91.2908 82.1445 91.6016V108.398C82.1445 108.709 82.268 109.007 82.4878 109.227C82.7075 109.447 83.0056 109.57 83.3164 109.57H116.683C116.994 109.57 117.292 109.447 117.511 109.227C117.731 109.007 117.855 108.709 117.855 108.398V91.6016C117.855 91.2908 117.731 90.9927 117.511 90.7729C117.292 90.5532 116.994 90.4297 116.683 90.4297ZM115.511 107.227H84.4883V92.7734H115.511V107.227Z" fill="#3F3679"/>
<path d="M165.481 90.4297H132.114C131.803 90.4297 131.505 90.5532 131.285 90.7729C131.066 90.9927 130.942 91.2908 130.942 91.6016V108.398C130.942 108.709 131.066 109.007 131.285 109.227C131.505 109.447 131.803 109.57 132.114 109.57H165.481C165.792 109.57 166.09 109.447 166.31 109.227C166.53 109.007 166.653 108.709 166.653 108.398V91.6016C166.653 91.2908 166.53 90.9927 166.31 90.7729C166.09 90.5532 165.792 90.4297 165.481 90.4297ZM164.309 107.227H133.286V92.7734H164.309V107.227Z" fill="#3F3679"/>
<path d="M67.9398 113.672H34.5727C34.2619 113.672 33.9638 113.795 33.744 114.015C33.5242 114.235 33.4008 114.533 33.4008 114.844C33.4008 115.155 33.5242 115.453 33.744 115.672C33.9638 115.892 34.2619 116.016 34.5727 116.016H67.9398C68.2506 116.016 68.5487 115.892 68.7685 115.672C68.9883 115.453 69.1117 115.155 69.1117 114.844C69.1117 114.533 68.9883 114.235 68.7685 114.015C68.5487 113.795 68.2506 113.672 67.9398 113.672Z" fill="#3F3679"/>
<path d="M67.9398 119.205H34.5727C34.2619 119.205 33.9638 119.329 33.744 119.549C33.5242 119.768 33.4008 120.067 33.4008 120.377C33.4008 120.688 33.5242 120.986 33.744 121.206C33.9638 121.426 34.2619 121.549 34.5727 121.549H67.9398C68.2506 121.549 68.5487 121.426 68.7685 121.206C68.9883 120.986 69.1117 120.688 69.1117 120.377C69.1117 120.067 68.9883 119.768 68.7685 119.549C68.5487 119.329 68.2506 119.205 67.9398 119.205Z" fill="#3F3679"/>
<path d="M116.683 113.672H83.3164C83.0056 113.672 82.7075 113.795 82.4878 114.015C82.268 114.235 82.1445 114.533 82.1445 114.844C82.1445 115.155 82.268 115.453 82.4878 115.672C82.7075 115.892 83.0056 116.016 83.3164 116.016H116.683C116.994 116.016 117.292 115.892 117.511 115.672C117.731 115.453 117.855 115.155 117.855 114.844C117.855 114.533 117.731 114.235 117.511 114.015C117.292 113.795 116.994 113.672 116.683 113.672Z" fill="#3F3679"/>
<path d="M116.683 119.205H83.3164C83.0056 119.205 82.7075 119.329 82.4878 119.549C82.268 119.768 82.1445 120.067 82.1445 120.377C82.1445 120.688 82.268 120.986 82.4878 121.206C82.7075 121.426 83.0056 121.549 83.3164 121.549H116.683C116.994 121.549 117.292 121.426 117.511 121.206C117.731 120.986 117.855 120.688 117.855 120.377C117.855 120.067 117.731 119.768 117.511 119.549C117.292 119.329 116.994 119.205 116.683 119.205Z" fill="#3F3679"/>
<path d="M165.481 113.672H132.114C131.803 113.672 131.505 113.795 131.285 114.015C131.066 114.235 130.942 114.533 130.942 114.844C130.942 115.155 131.066 115.453 131.285 115.672C131.505 115.892 131.803 116.016 132.114 116.016H165.481C165.792 116.016 166.09 115.892 166.31 115.672C166.53 115.453 166.653 115.155 166.653 114.844C166.653 114.533 166.53 114.235 166.31 114.015C166.09 113.795 165.792 113.672 165.481 113.672Z" fill="#3F3679"/>
<path d="M165.481 119.205H132.114C131.803 119.205 131.505 119.329 131.285 119.549C131.066 119.768 130.942 120.067 130.942 120.377C130.942 120.688 131.066 120.986 131.285 121.206C131.505 121.426 131.803 121.549 132.114 121.549H165.481C165.792 121.549 166.09 121.426 166.31 121.206C166.53 120.986 166.653 120.688 166.653 120.377C166.653 120.067 166.53 119.768 166.31 119.549C166.09 119.329 165.792 119.205 165.481 119.205Z" fill="#3F3679"/>
</svg>
